<svg width="20" height="20" viewBox="0 0 20 20" fill="none" xmlns="http://www.w3.org/2000/svg">
<path d="M19.8 12.001C19.3858 14.0237 18.3563 15.8688 16.8525 17.2834C15.3487 18.6981 13.4442 19.6131 11.4 19.903V17.878C12.9098 17.6087 14.3106 16.9117 15.4358 15.8697C16.5611 14.8278 17.3636 13.4847 17.748 12L19.8 12.001ZM2.25201 12.001C2.63223 13.4685 3.42108 14.798 4.5269 15.835C5.63273 16.8719 7.01012 17.5738 8.49901 17.859V19.889C6.47493 19.5806 4.59409 18.6589 3.11013 17.2483C1.62618 15.8376 0.610481 14.0059 0.200011 12H2.25201V12.001ZM16 9V11H15C13.9738 11 12.9868 11.3944 12.2432 12.1017C11.4996 12.809 11.0563 13.775 11.005 14.8L11 15V16H9.00001V15C9.00001 13.9738 8.60558 12.9868 7.89829 12.2432C7.191 11.4996 6.22497 11.0563 5.20001 11.005L5.00001 11H4.00001V9H16ZM10 0C15.185 0 19.449 3.947 19.95 9H17.938C17.694 7.0669 16.7529 5.28927 15.2914 4.00068C13.8299 2.71208 11.9485 2.00108 10 2.00108C8.05156 2.00108 6.17008 2.71208 4.70858 4.00068C3.24709 5.28927 2.30604 7.0669 2.06201 9H0.0490112C0.551011 3.947 4.81501 0 10 0Z" fill="white"/>
</svg>
